<?xml version="1.0" encoding="utf-8"?>
<!-- Generator: Adobe Illustrator 24.1.2, SVG Export Plug-In . SVG Version: 6.00 Build 0)  -->
<svg version="1.1" xmlns="http://www.w3.org/2000/svg" xmlns:xlink="http://www.w3.org/1999/xlink" x="0px" y="0px"
	 viewBox="0 0 595.3 220.9" style="enable-background:new 0 0 595.3 220.9;" xml:space="preserve">
	 <style>
	 	.sons-logo { 
			 fill: white;
		 }
		.sons-logo :hover {
			fill: grey;
		}
	 </style>
<g  class="is-clickable sons-logo" >
	<g>
		<path d="M112.4,87.7c-0.5,2.1-1.1,4.2-1.6,6.3c-0.8,3.6-1.4,7.3-2.2,11c-0.6,3.2-1.2,6.4-1.8,9.6c-0.7,3.6-1.4,7.2-2.2,10.8
			c-0.5,2.4-1,4.7-1.4,7.1c-0.6,3.3-1.2,6.6-1.7,9.8c-0.4,2.5-0.9,5-1.4,7.5c-1.1,5.5-2.3,11-3.4,16.5c-0.3,1.5-0.3,3.1-1,4.4
			c-1.2,2.5-3.7,3.7-6.2,3.1c-2.7-0.7-4-2.8-4.6-5.3c-1.3-4.9-2.5-9.8-3.8-14.8c-1-4.2-2-8.5-3.1-12.7c-1.1-4.2-2.3-8.4-3.4-12.6
			c-0.6-2.4-1.1-4.8-1.7-7.2c-0.2-0.6-0.4-1.2-0.6-1.9c-0.2,0-0.4,0-0.6-0.1c-0.6,1.3-1.2,2.6-1.8,4c-0.6,1.4-0.9,2.9-1.6,4.2
			c-1.2,1.9-3,3.1-5.3,3.1c-8.3,0.1-16.5,0-24.8,0c-2.9,0-4.3-1.5-4.3-4.2c0-1,0-2.1,0-3.1c0-2.8,1.1-3.9,4-4c5.1-0.1,10.2,0,15.3,0
			c1,0,2.1-0.2,3.1,0c2.3,0.4,3.5-0.7,4.2-2.7c1-2.8,2-5.6,3-8.4c1.4-3.7,2.6-7.4,4.2-10.9c1-2.2,2.9-3.5,5.6-3.2
			c2.3,0.2,3.9,1.3,4.6,3.6c0.8,2.9,1.6,5.9,2.4,8.9c1.1,4.3,2.3,8.6,3.4,12.9c0.6,2.5,1.2,4.9,1.8,7.4c0.6,2.5,1.3,5,2,7.6
			c0.3,1.4,0.5,2.8,0.9,4.2c0.2,0.7,0.9,1.2,1.3,1.8c0.4-0.6,1-1.1,1.1-1.8c1.4-6.8,2.7-13.6,3.9-20.4c1-5.5,1.9-11.1,3-16.6
			c1.1-5.6,2.3-11.1,3.4-16.7c0.6-3.1,1.1-6.2,1.7-9.3c0.7-3.5,1.4-7,2.1-10.6c0.4-2,0.6-4.2,1.4-6c1.1-2.6,3.1-3.4,6.1-3
			c1.9,0.3,3.8,2.4,4.4,4.5c1.2,4.5,2.5,9,3.7,13.6c1,4,2,8,3,11.9c1.1,4,2.3,7.9,3.4,11.9c0.7,2.4,1.2,4.9,1.9,7.4
			c0.3,0.9,0.9,1.7,1.4,2.5c0.5-0.7,1.2-1.4,1.5-2.2c1.1-2.3,2.1-4.7,3.2-7.1c1.6-3.6,3.1-7.2,4.7-10.7c0.5-1.2,0.9-2.5,1.7-3.5
			c1.5-2,3.8-2.6,6-1.8c1.5,0.5,3.1,2,3.7,3.4c1.9,4.3,3.4,8.7,5.1,13.1c1.5,4,2.9,8.1,4.4,12.1c0.5,1.3,1,2.6,1.5,3.8
			c0.1,0.2,0.2,0.5,0.4,0.6c2.9,1.4,5,4.3,8.5,4.5c1.4,0.1,2.7,1.2,4.1,1.5c10.2,2.1,20.6,3,31.1,3.2c15.1,0.4,30.1-0.8,45-3.8
			c3.5-0.7,6.9-2.2,10.4-3.3c0-0.2,0-0.5,0-0.7c-0.6-0.4-1.3-0.8-1.9-1.2c-8.3-4.6-17.1-7.9-26.3-10.4c-11.8-3.2-23.4-7.3-35.6-9.1
			c-8.4-1.2-16.7-2.9-25-4.4c-4.1-0.7-7.7-2.6-10.9-5.1c-3.5-2.7-4.5-7.2-2.5-11.1c1.4-2.8,3.3-5.1,6.3-6.6
			c6.6-3.2,12.9-7.2,19.8-9.6c16.9-5.9,34.4-9.9,52.1-12.5c8.2-1.2,16.5-1.2,24.5,1.4c1.4,0.5,2.9,0.3,4,1.7c0.9,1.3,1.2,2.8,0,3.8
			c-3.3,2.9-6.2,6.4-10.8,7.7c-0.5,0.1-1,0.3-1.5,0.3c-3.4,0.4-5-1.5-3.8-4.8c-3,0-6-0.3-8.9,0.1c-18.9,2.4-37.3,7-55.2,13.9
			c-4.7,1.8-9,4.2-13.6,7.1c1.3,0.6,2.1,1.1,3,1.3c7.3,1.7,14.5,3.6,21.8,4.9c17.7,3.1,35.3,6.5,52.6,11.5
			c8.9,2.6,17.2,6.3,24.6,12.1c3.4,2.6,5.2,6,5.4,10.3c0.2,4.4-1.1,7.1-5.2,8.5c-4.7,1.7-9.6,3.2-14.6,3.8
			c-11.8,1.4-23.7,3-35.6,3.1c-19.5,0.3-39.1,0.3-58.3-3.8c-3.3-0.7-6.5-1.9-9.7-3.1c-0.9-0.3-1.8-1.3-2.1-2.2
			c-1.4-3.1-2.6-6.2-3.8-9.4c-1.4-3.6-2.7-7.2-4.1-10.8c-0.1-0.3-0.5-0.6-0.7-0.6c-0.3,0.1-0.7,0.4-0.8,0.7
			c-0.9,1.9-1.8,3.8-2.6,5.7c-2.1,4.8-4.1,9.5-6.2,14.3c-0.6,1.4-1.2,2.8-1.7,4.1c-0.9,2.1-3.3,3.6-5.6,3.5c-2.1-0.1-4.1-1.7-4.8-4
			c-1.8-6.4-3.5-12.8-5.3-19.2c-1.5-5.5-3.1-11-4.7-16.6c-0.4-1.3-0.6-2.7-0.9-4.1C113.1,87.7,112.7,87.7,112.4,87.7z"/>
		<path d="M366.7,87.5c0.5,12.1-0.9,24.1-2,36.1c-0.1,1.3-0.5,2.6-1,3.8c-1,2.5-2.8,3.6-5,3.4c-2.4-0.2-4.2-1.6-4.7-4.2
			c-0.4-2.1-0.6-4.3-0.5-6.4c0.6-8.4,1.5-16.8,2.2-25.3c1-10.6,0.7-21-1.6-31.5c-1.4-6-1.8-12.2-2.6-18.3c-0.1-0.8,0-1.7,0-2.6
			c0.1-1.5,0.8-2.5,2.3-2.8c1.4-0.3,2.3,0.5,3,1.6c3,4.6,5.2,9.6,6.7,14.8c3.6,12.5,10.4,23.1,18.5,33c2.9,3.5,6.1,6.9,9.1,10.3
			c0.5,0.6,1.1,1.1,1.8,1.5c11.1,6.7,22.9,10.4,36,7.2c4.3-1.1,8.6-2.2,12.8-3.6c4-1.3,7.2-4,10.1-7c2.6-2.8,3.4-6.4,2.9-10.1
			c-1.3-8.6-4.5-16.5-9-23.9c-1.2-2-2.4-3.8-3.7-5.8c-0.4,0.2-0.8,0.4-1.1,0.6c-4.6,3.3-9.7,1.2-10.3-4.3c-0.3-2.8-0.1-5.8,0.4-8.6
			c0.5-3.3,2.9-4.1,5.4-2c2.3,1.9,4.2,4.1,6.4,6.1c10.7,9.9,16.6,22.4,19.8,36.3c1.4,6.1,0.9,12-2.9,17.3c-2.8,3.9-6.6,6.5-10.8,8.7
			c-8.1,4.2-16.6,7.5-25.9,7.2c-9.2-0.3-18.4-0.6-27-4.5c-2.9-1.3-6-2.3-8.4-4.2c-5.8-4.7-11.6-9.4-15.7-15.8
			c-1.6-2.5-3.3-4.8-5-7.2C367.1,87.3,366.9,87.4,366.7,87.5z"/>
		<path d="M317.4,72.5c11.1-0.2,20,3.2,27.6,10.8c7.3,7.3,7.1,17.1,1.7,25.1c-5.5,8-13.2,13.4-21.5,17.9c-2.8,1.5-6.1,2.4-9.3,2.9
			c-6.2,1-12.4,1.1-18.6-0.2c-5.5-1.2-9.9-4.3-12.7-9.3c-0.8-1.4-0.8-3.3-1.1-4.9c-1.5-7.1-1.9-14.2,0.6-21.1c1.2-3.1,3-6.2,5.2-8.7
			C296.8,76.3,306.3,72,317.4,72.5z M291.9,95.1c3-0.2,5.6-0.5,8.1-0.6c2.7-0.1,5.5,0.1,8.2,0.1c1.5,0,2.6,0.5,3,2
			c0.3,1.6-0.5,2.7-2,3.1c-1,0.3-2.1,0.4-3.1,0.6c-3,0.5-6.1,0.9-9.1,1.4c-1.5,0.3-2.7,1.3-2.9,2.9c-0.4,3.3-0.7,6.6-0.8,9.9
			c-0.1,1.7,0.9,2.9,2.5,3.4c2.8,0.8,5.6,2,8.4,2.1c13.2,0.3,24.1-4.8,32.5-15c4.2-5.2,3.7-12.4-1.2-16.9c-2-1.9-4.6-3.5-7.2-4.2
			c-2.9-0.9-6.2-0.9-9.3-0.9c-6.9,0.1-13.6,1.3-19.7,4.7C296.2,89.4,293.9,91.8,291.9,95.1z"/>
		<path d="M478.1,87.9c2.2,1,4.2,2.3,6.5,2.9c10.1,2.8,20.5,3.4,30.9,4.7c6.7,0.8,13.3,2.4,19.9,3.8c4.5,1,8.3,3.5,12,6.1
			c2.4,1.7,2.2,5.4-0.3,6.9c-3.5,2.2-7.4,3.1-11.5,3.6c-13.7,1.8-27.6,2.4-41.4,2.3c-4.7,0-9.4-0.7-14.1-1.3
			c-1.1-0.1-2.5-0.6-3.1-1.4c-0.7-0.9-0.9-2.5-0.7-3.6c0.3-1.5,1.7-2.2,3.2-2c3.3,0.3,6.6,1,10,1.1c7.6,0.1,15.2,0,22.8-0.3
			c4.9-0.2,9.8-0.9,14.6-1.5c1.3-0.2,2.6-0.8,3.9-1.2c0-0.3,0-0.5,0-0.8c-2.7-0.8-5.3-1.8-8-2.2c-7.5-1.2-15.1-2.1-22.6-3.3
			c-6.6-1-13.2-1.9-19.7-3.4c-3.3-0.8-6.5-2.5-9.4-4.4c-5.5-3.6-5.3-9.8,0.3-13.2c2.3-1.4,4.8-2.8,7.4-3.6
			c6.3-1.9,12.7-3.6,19.2-5.1c5.6-1.3,11.2-2.6,16.9-3.5c5.8-0.9,11.6-1.1,17.4,0.2c2,0.4,4,1.3,5.7,2.4c4.3,2.7,3.9,8.1-0.6,10.4
			c-0.7,0.4-1.4,0.9-2.1,0.9c-1.1,0.1-2.6,0.2-3.2-0.4c-0.7-0.6-1-2.3-0.6-3.1c0.8-2-0.1-2.3-1.7-2.7c-4.5-1-8.9,0-13.3,0.7
			c-8.1,1.3-16.2,2.7-24.2,4.3c-3.7,0.8-7.3,2.2-10.8,3.4c-1.2,0.4-2.1,1.4-3.2,2.1C478.1,87.3,478.1,87.6,478.1,87.9z"/>
	</g>
	<g>
		<path d="M166.2,165.3c0,0,2.4,2.5,5.8,2.5c2.1,0,3.9-1.2,3.9-3.4c0-5-11.1-3.9-11.1-10.9c0-3.6,3.1-6.4,7.4-6.4
			c4.2,0,6.5,2.3,6.5,2.3l-1.5,2.7c0,0-2.1-2-5-2c-2.4,0-4.1,1.5-4.1,3.3c0,4.7,11.1,3.5,11.1,10.9c0,3.5-2.7,6.4-7.3,6.4
			c-4.9,0-7.6-3-7.6-3L166.2,165.3z"/>
		<path d="M188.6,160.7l-7.7-13.2h3.6l4.2,7.5c0.7,1.3,1.4,2.9,1.4,2.9h0.1c0,0,0.7-1.6,1.4-2.9l4.2-7.5h3.6l-7.6,13.2v9.7h-3.2
			V160.7z"/>
		<path d="M203.7,147.5h3.4l5.2,12.4c0.5,1.3,1.1,3.1,1.1,3.1h0.1c0,0,0.6-1.8,1.1-3.1l5.2-12.4h3.4l1.9,22.9h-3.2l-1.1-14.4
			c-0.1-1.4,0-3.4,0-3.4h-0.1c0,0-0.7,2.1-1.2,3.4l-4.6,10.3H212l-4.5-10.3c-0.5-1.2-1.2-3.4-1.2-3.4h-0.1c0,0,0,2-0.1,3.4
			l-1.1,14.4h-3.2L203.7,147.5z"/>
		<path d="M230.6,147.5h8.4c4.2,0,7.2,2.8,7.2,7.2c0,4.3-3,7.3-7.2,7.3h-5.1v8.5h-3.2V147.5z M238.4,159.1c2.8,0,4.4-1.7,4.4-4.5
			s-1.7-4.4-4.4-4.4h-4.7v8.8H238.4z"/>
		<path d="M250.2,147.5h3.2v10h11.9v-10h3.2v22.9h-3.2v-10h-11.9v10h-3.2V147.5z"/>
		<path d="M284.9,147.1c6.6,0,11.7,5.1,11.7,11.7c0,6.7-5.1,12-11.7,12c-6.6,0-11.8-5.2-11.8-12
			C273.1,152.2,278.3,147.1,284.9,147.1z M284.9,167.8c4.7,0,8.4-3.9,8.4-9c0-5-3.8-8.8-8.4-8.8c-4.7,0-8.5,3.8-8.5,8.8
			C276.4,163.9,280.2,167.8,284.9,167.8z"/>
		<path d="M301.3,147.5h3.2l10.2,14.9c0.8,1.2,1.9,3.3,1.9,3.3h0.1c0,0-0.2-2-0.2-3.3v-14.9h3.2v22.9h-3.1l-10.2-14.8
			c-0.8-1.3-1.9-3.3-1.9-3.3h-0.1c0,0,0.2,2,0.2,3.3v14.8h-3.2V147.5z"/>
		<path d="M330.6,160.7l-7.7-13.2h3.6l4.2,7.5c0.7,1.3,1.4,2.9,1.4,2.9h0.1c0,0,0.7-1.6,1.4-2.9l4.2-7.5h3.6l-7.6,13.2v9.7h-3.2
			V160.7z"/>
		<path d="M363.3,147.1c6.6,0,11.7,5.1,11.7,11.7c0,6.7-5.1,12-11.7,12c-6.6,0-11.8-5.2-11.8-12
			C351.6,152.2,356.7,147.1,363.3,147.1z M363.3,167.8c4.7,0,8.4-3.9,8.4-9c0-5-3.8-8.8-8.4-8.8c-4.7,0-8.5,3.8-8.5,8.8
			C354.9,163.9,358.7,167.8,363.3,167.8z"/>
		<path d="M379.7,147.5h12.6v2.8h-9.4v7.5h8v2.8h-8v9.8h-3.2V147.5z"/>
		<path d="M404.9,147.5h3.2l10.2,14.9c0.8,1.2,1.9,3.3,1.9,3.3h0.1c0,0-0.2-2-0.2-3.3v-14.9h3.2v22.9h-3.1l-10.2-14.8
			c-0.8-1.3-1.9-3.3-1.9-3.3h-0.1c0,0,0.2,2,0.2,3.3v14.8h-3.2V147.5z"/>
		<path d="M440.7,163.8h-8.6l-2.3,6.6h-3.3l8.2-22.9h3.4l8.2,22.9H443L440.7,163.8z M436.4,150.6c0,0-0.5,2.1-0.9,3.2l-2.6,7.3h6.9
			l-2.5-7.3C437,152.7,436.5,150.6,436.4,150.6L436.4,150.6z"/>
		<path d="M453.2,150.3h-7.8v-2.8h18.9v2.8h-7.8v20.1h-3.2V150.3z"/>
		<path d="M467.5,147.5h3.2v22.9h-3.2V147.5z"/>
		<path d="M487.2,147.1c6.6,0,11.7,5.1,11.7,11.7c0,6.7-5.1,12-11.7,12c-6.6,0-11.8-5.2-11.8-12
			C475.4,152.2,480.5,147.1,487.2,147.1z M487.2,167.8c4.7,0,8.4-3.9,8.4-9c0-5-3.8-8.8-8.4-8.8c-4.7,0-8.5,3.8-8.5,8.8
			C478.7,163.9,482.5,167.8,487.2,167.8z"/>
		<path d="M503.5,147.5h3.2l10.2,14.9c0.8,1.2,1.9,3.3,1.9,3.3h0.1c0,0-0.2-2-0.2-3.3v-14.9h3.2v22.9h-3.1l-10.2-14.8
			c-0.8-1.3-1.9-3.3-1.9-3.3h-0.1c0,0,0.2,2,0.2,3.3v14.8h-3.2V147.5z"/>
		<path d="M528.1,165.3c0,0,2.4,2.5,5.8,2.5c2.1,0,3.9-1.2,3.9-3.4c0-5-11.1-3.9-11.1-10.9c0-3.6,3.1-6.4,7.4-6.4
			c4.2,0,6.5,2.3,6.5,2.3l-1.5,2.7c0,0-2.1-2-5-2c-2.4,0-4.1,1.5-4.1,3.3c0,4.7,11.1,3.5,11.1,10.9c0,3.5-2.7,6.4-7.3,6.4
			c-4.9,0-7.6-3-7.6-3L528.1,165.3z"/>
	</g>
</g>
</svg>
